<?xml version="1.0" encoding="UTF-8"?>
<svg id="Capa_2" data-name="Capa 2" xmlns="http://www.w3.org/2000/svg" viewBox="0 0 367.04 367.36">
  <defs>
    <style>
      .cls-1 {
        opacity: .31;
      }

      .cls-1, .cls-2 {
        fill: #898989;
      }

      .cls-3 {
        fill: #225781;
      }

      .cls-4 {
        fill: #4bbadd;
      }

      .cls-5 {
        fill: #f9f3e2;
      }

      .cls-6 {
        fill: #3c82d6;
      }

      .cls-7 {
        fill: #c0d1eb;
      }

      .cls-8 {
        fill: #275a83;
      }

      .cls-9 {
        fill: #5780a2;
      }

      .cls-2 {
        opacity: .62;
      }
    </style>
  </defs>
  <g id="Capa_1-2" data-name="Capa 1">
    <g>
      <path class="cls-3" d="m38.04,338.21c-18.31-7.98-31.12-21.07-36.63-40.48-1.29-4.54-1.18-9.57-1.18-14.37C.17,208.04.58,132.72,0,57.41-.25,24.57,27.78-.26,57.54,0c60.99.54,121.98.16,182.97.16,13.66,0,27.33.15,40.99-.03,27.48-.36,47.37,14.57,56.19,37.41,1.83,6.42,3.12,12.9,3.11,19.63-.03,75.28-.02,150.56-.02,225.84,0,4.84-.44,9.66-1.6,14.35-6.38,25.88-28.13,43.05-54.86,43.07-71.62.07-143.24.03-214.85.02-9.48,0-18.98.47-28.36-1.53-1.03-.24-2.05-.47-3.08-.71ZM202.89,73.44c4.09-.52,7.83,1.17,11.73,1.86,9.21,1.64,18.03,4.42,26,9.36,16.67,10.34,27.85,25.04,33.6,43.77.86,2.81,1.89,4.08,5.04,4.06,16.66-.15,33.32-.12,49.98-.03,3.14.02,4.56-.96,4.5-4.27-.4-24.81.88-49.64-.65-74.42-1.66-26.84-22.44-46.33-49.35-46.36-75.46-.09-150.93-.03-226.39-.05-4.36,0-8.64.57-12.84,1.62C22.36,14.46,7.26,34.49,7.25,58.55c-.03,74.3,0,148.59-.06,222.89,0,5.06.65,9.95,1.9,14.8,5.26,20.45,24.08,36.62,44.13,36.89,29.31.4,58.64.1,87.96.19,2.88,0,3.48-.6,3.02-3.66-1.95-12.93,6.84-21,16.63-21.59,6.7-.4,12.95-2.91,18.71-6.47,1.94-1.2,3.36-2.47,3.35-5.06-.06-22.82-.04-45.64-.03-68.47,0-1.84-.41-3.69-2.51-3.57-3.27.18-5.65-1.8-8.35-2.88-34-13.64-56.34-49.82-45.72-91.77,8.29-32.74,38.98-56.17,72.8-56.44,1.27,1.14,2.54,1.13,3.83.03Zm29.81,175.51v-.03c-6.16,0-12.33-.09-18.49.04-2.8.06-3.81-.99-3.77-3.79.12-7.66.11-15.32,0-22.99-.03-2.41.71-3.48,3.23-3.98,16.99-3.42,30.93-11.95,41.54-25.69,1.88-2.44,3.03-2.21,4.98-.19,5.1,5.26,10.37,10.36,15.59,15.5,6.3,6.21,11.19,6.27,17.6,0,8.92-8.74,17.09-18.41,26.8-26.15,11.02-8.79,15.03-19.1,13.49-32.82-.97-8.64-.18-8.73-8.81-8.73-17.32,0-34.65-.02-51.97.02-2.98,0-4.56-.41-5.18-4.18-1.11-6.78-3.32-13.39-6.7-19.52-15.14-27.45-47.12-40.2-76.35-33.76-26.72,5.88-50.2,30.16-53.04,58.9-2.42,24.5,5.27,44.98,23.68,61.2,9.2,8.1,19.95,13.6,32.21,15.55,3.04.48,2.62,2.44,2.62,4.38,0,25.65-.01,51.3.04,76.96,0,2.16-.49,3.79-2.27,5.16-7.08,5.47-14.9,9.13-23.79,10.54-4.87.78-9.85,1.37-12.38,6.79-2.01,4.31.29,10.67,4.55,11.06,14.56,1.32,28.54-.15,40.46-9.7,2.7-2.17,4.47-2.03,7.29-.01,7.95,5.71,16.24,10.85,26.78,9.82,3.3-.32,6.66-.05,9.99-.05,6.89,0,8.76-2.05,8.21-8.97-.39-4.97-4.19-8.34-10.38-8.8-9.27-.68-17.17-4.57-24.6-9.8-2.54-1.78-3.7-3.84-3.62-7.07.22-8.16.29-16.33-.02-24.48-.16-4.12,1.39-4.99,5.16-4.92,11.32.21,22.66.21,33.98,0,6.93-.12,10.61-4.11,10.46-10.62-.14-6.14-3.92-9.57-10.79-9.65-5.5-.07-10.99-.01-16.49-.01Zm99.68-68.56c-1.2,1.07-2.08,1.8-2.9,2.59-10.48,10.25-20.95,20.5-31.41,30.77-8.51,8.36-18.47,8.43-26.89.14-3.44-3.39-6.96-6.71-10.26-10.24-2.04-2.17-3.2-2.3-5.47.09-7.53,7.95-16.49,14.05-26.74,17.96-11.01,4.19-10.95,4.02-10.73,15.52.06,3.36,1.26,4.26,4.43,4.21,9.5-.15,19-.19,28.49,0,9.88.19,17.12,7.91,17.07,17.85-.05,9.67-7.23,17-17.06,17.19-7.16.14-14.33.04-21.49.04q-11.36,0-11.36,11.13c0,13.47,1.45,15.4,14.61,19.09,2.39.67,4.86,1.17,7.32,1.49,12.02,1.58,17.96,9.14,15.97,20.94-.59,3.5.43,4.25,3.71,4.19,9.16-.19,18.33-.09,27.49-.1,3.35,0,6.68-.32,9.83-1.44,24.83-8.84,36.72-25.75,36.74-52.18.02-30.66.01-61.32-.01-91.97,0-2.29.42-4.68-1.32-7.25Zm-128.49,152.36c-2.59-2.55-4.44-2.82-6.46-.13,2.07,1.04,3.9.77,6.46.13Z"/>
      <path class="cls-1" d="m345.89,44.46c13.2,10.45,21.15,23.49,21.13,40.89-.09,77.29-.12,154.58.02,231.86.04,18.57-14.19,39.51-32.58,46.13-7.43,2.67-14.98,4.02-22.91,4.01-74.96-.09-149.92.08-224.88-.15-17.06-.05-31.19-7.11-41.59-20.96,1.12.26,2.31.38,3.36.82,8.7,3.61,17.67,5.33,27.16,5.31,72.95-.12,145.9-.07,218.85-.08,4.64,0,9.24-.21,13.89-.86,23.81-3.32,43.62-25.66,43.62-49.71.02-77.44,0-154.89.03-232.33,0-7.13-1.78-13.79-4.65-20.22-.68-1.52-1.51-2.98-1.45-4.72Z"/>
      <path class="cls-2" d="m345.89,44.46c-.05,1.74.78,3.19,1.45,4.72,2.86,6.43,4.65,13.09,4.65,20.22-.03,77.44-.01,154.89-.03,232.33,0,24.04-19.81,46.39-43.62,49.71-4.65.65-9.25.86-13.89.86-72.95,0-145.9-.05-218.85.08-9.49.02-18.46-1.7-27.16-5.31-1.05-.44-2.23-.55-3.36-.82-1.38-1.63-2.76-3.26-4.14-4.89.06-.81.12-1.63.18-2.44,9.37,2,18.88,1.53,28.36,1.53,71.62,0,143.24.05,214.85-.02,26.73-.02,48.48-17.2,54.86-43.07,1.16-4.7,1.6-9.51,1.6-14.35,0-75.28,0-150.56.02-225.84,0-6.73-1.29-13.21-3.11-19.63,3.77,1.08,4.95,5.21,8.19,6.92Z"/>
      <path class="cls-7" d="m41.12,338.92c-.06.81-.12,1.63-.18,2.44-1.86-.23-2.91-1.2-2.9-3.15,1.03.24,2.05.47,3.08.71Z"/>
      <path class="cls-6" d="m199.06,73.41c-33.81.27-64.5,23.7-72.8,56.44-10.62,41.95,11.72,78.13,45.72,91.77,2.71,1.09,5.08,3.07,8.35,2.88,2.11-.12,2.51,1.74,2.51,3.57-.01,22.82-.03,45.64.03,68.47,0,2.59-1.41,3.86-3.35,5.06-5.76,3.56-12,6.07-18.71,6.47-9.79.59-18.58,8.65-16.63,21.59.46,3.06-.14,3.67-3.02,3.66-29.32-.09-58.64.2-87.96-.19-20.05-.27-38.87-16.44-44.13-36.89-1.25-4.85-1.9-9.74-1.9-14.8.07-74.3.03-148.59.06-222.89.01-24.05,15.11-44.09,37.26-49.59,4.2-1.04,8.48-1.62,12.84-1.62,75.46.03,150.93-.04,226.39.05,26.91.03,47.69,19.52,49.35,46.36,1.53,24.78.25,49.62.65,74.42.05,3.32-1.36,4.29-4.5,4.27-16.66-.1-33.32-.12-49.98.03-3.15.03-4.18-1.25-5.04-4.06-5.75-18.73-16.93-33.43-33.6-43.77-7.96-4.94-16.79-7.72-26-9.36-3.9-.69-7.64-2.38-11.73-1.86-1.27-1.28-2.54-1.27-3.83-.03Z"/>
      <path class="cls-5" d="m232.7,248.94c5.5,0,10.99-.06,16.49.01,6.88.09,10.65,3.51,10.79,9.65.15,6.51-3.52,10.5-10.46,10.62-11.32.2-22.66.2-33.98,0-3.77-.07-5.32.8-5.16,4.92.31,8.15.24,16.32.02,24.48-.09,3.23,1.08,5.29,3.62,7.07,7.44,5.23,15.34,9.12,24.6,9.8,6.2.46,9.99,3.83,10.38,8.8.55,6.92-1.32,8.96-8.21,8.97-3.33,0-6.69-.27-9.99.05-10.54,1.03-18.83-4.11-26.78-9.82-2.82-2.02-4.58-2.15-7.29.01-11.92,9.55-25.9,11.02-40.46,9.7-4.25-.39-6.56-6.75-4.55-11.06,2.53-5.42,7.5-6.02,12.38-6.79,8.88-1.41,16.71-5.07,23.79-10.54,1.78-1.38,2.28-3,2.27-5.16-.05-25.65-.03-51.3-.04-76.96,0-1.95.42-3.9-2.62-4.38-12.27-1.94-23.01-7.44-32.21-15.55-18.42-16.22-26.1-36.7-23.68-61.2,2.83-28.73,26.31-53.01,53.04-58.9,29.23-6.44,61.21,6.31,76.35,33.76,3.38,6.13,5.59,12.74,6.7,19.52.62,3.78,2.2,4.19,5.18,4.18,17.32-.05,34.65-.02,51.97-.02,8.62,0,7.84.09,8.81,8.73,1.54,13.71-2.47,24.02-13.49,32.82-9.71,7.74-17.88,17.41-26.8,26.15-6.4,6.27-11.3,6.22-17.6,0-5.22-5.15-10.49-10.24-15.59-15.5-1.95-2.02-3.09-2.25-4.98.19-10.61,13.73-24.55,22.27-41.54,25.69-2.51.51-3.26,1.57-3.23,3.98.1,7.66.12,15.33,0,22.99-.04,2.8.97,3.85,3.77,3.79,6.16-.13,12.33-.04,18.49-.04v.03Zm18.23-98.59c-.44-30.5-23.47-50.62-50.31-50.84-28.7-.24-50.87,22.64-51.44,49.99-.58,27.97,22.92,51.51,50.15,51.64,28.72.14,51.18-21.31,51.6-50.79Zm60.7,11.45c-.3-.48-.6-.96-.9-1.44-13.22,0-26.44,0-39.66.01-1.39,0-3.16.49-2.92,2,.49,3.14-3.25,6.17-.07,9.28,4.76,4.64,9.56,9.25,14.18,14.03,1.9,1.97,3.12,1.62,4.84-.18,3.67-3.85,7.48-7.57,11.31-11.26,4.36-4.2,8.82-8.3,13.23-12.44Z"/>
      <path class="cls-6" d="m332.38,180.38c1.74,2.57,1.31,4.96,1.32,7.25.02,30.66.03,61.32.01,91.97-.02,26.43-11.91,43.34-36.74,52.18-3.15,1.12-6.48,1.44-9.83,1.44-9.16,0-18.33-.09-27.49.1-3.29.07-4.3-.68-3.71-4.19,1.99-11.81-3.95-19.37-15.97-20.94-2.47-.32-4.93-.82-7.32-1.49-13.16-3.69-14.61-5.62-14.61-19.09q0-11.13,11.36-11.13c7.16,0,14.33.1,21.49-.04,9.82-.19,17.01-7.52,17.06-17.19.05-9.94-7.19-17.66-17.07-17.85-9.49-.18-19-.14-28.49,0-3.16.05-4.36-.84-4.43-4.21-.22-11.5-.28-11.32,10.73-15.52,10.25-3.91,19.21-10.01,26.74-17.96,2.27-2.4,3.44-2.26,5.47-.09,3.3,3.52,6.82,6.85,10.26,10.24,8.42,8.29,18.38,8.22,26.89-.14,10.46-10.27,20.94-20.52,31.41-30.77.81-.8,1.7-1.52,2.9-2.59Z"/>
      <path class="cls-4" d="m203.88,332.73c-2.56.64-4.38.91-6.46-.13,2.01-2.7,3.87-2.42,6.46.13Z"/>
      <path class="cls-9" d="m199.06,73.41c1.28-1.24,2.56-1.26,3.83.03-1.28,1.1-2.56,1.12-3.83-.03Z"/>
      <path class="cls-8" d="m250.93,150.35c-.43,29.49-22.89,50.93-51.6,50.79-27.23-.13-50.72-23.66-50.15-51.64.57-27.35,22.74-50.23,51.44-49.99,26.84.22,49.87,20.34,50.31,50.84Zm-7.96.23c2.39-23.18-20.02-44.13-42.76-43.54-23.93.62-43.17,19.41-43.15,43.31.03,23.72,19.52,42.79,43.42,43.08,24.13.29,44.55-21.64,42.48-42.85Z"/>
      <path class="cls-8" d="m311.63,161.8c-4.41,4.14-8.87,8.24-13.23,12.44-3.83,3.69-7.64,7.41-11.31,11.26-1.72,1.8-2.93,2.15-4.84.18-4.62-4.78-9.42-9.39-14.18-14.03-3.18-3.1.56-6.14.07-9.28-.24-1.51,1.53-2,2.92-2,13.22-.02,26.44-.01,39.66-.01.3.48.6.96.9,1.44Zm-19.07,5.84c-4.7,0-8.94-.09-13.18.05-1.68.05-2.91.69-1.62,2.85,3.86,6.43,6.79,6.87,11.95,1.57,1.01-1.03,2.4-1.81,2.85-4.47Z"/>
      <path class="cls-6" d="m242.97,150.57c2.06,21.21-18.35,43.14-42.48,42.85-23.9-.29-43.39-19.36-43.42-43.08-.03-23.9,19.22-42.69,43.15-43.31,22.73-.59,45.15,20.35,42.76,43.54Zm-43.07,22.84c12.19.51,24.21-10.26,23.61-23.27-.7-15.37-9.27-21.78-23.47-22.52-13.63-.71-21.84,10.12-23.17,21.87-1.2,10.58,12.09,25.58,23.02,23.93Z"/>
      <path class="cls-6" d="m292.57,167.64c-.45,2.65-1.84,3.43-2.85,4.47-5.16,5.3-8.09,4.86-11.95-1.57-1.3-2.16-.06-2.79,1.62-2.85,4.24-.14,8.48-.05,13.18-.05Z"/>
      <path class="cls-3" d="m199.9,173.42c-10.93,1.65-24.22-13.35-23.02-23.93,1.33-11.75,9.54-22.58,23.17-21.87,14.2.74,22.76,7.15,23.47,22.52.6,13.01-11.43,23.78-23.61,23.27Zm.11-28.67c.61,2.45,2.38,5.11,5.76,5.49,3.72.42,7.76-3.48,7.47-6.75-.34-3.85-2.64-6.01-6.5-6.13-3.47-.11-6.77,3.24-6.72,7.39Z"/>
      <path class="cls-5" d="m200.01,144.75c-.05-4.15,3.25-7.5,6.72-7.39,3.87.12,6.17,2.28,6.5,6.13.29,3.27-3.75,7.17-7.47,6.75-3.38-.38-5.14-3.04-5.76-5.49Z"/>
    </g>
  </g>
</svg>