<?xml version="1.0" encoding="UTF-8"?>
<svg id="Capa_2" data-name="Capa 2" xmlns="http://www.w3.org/2000/svg" viewBox="0 0 367.47 367.21">
  <defs>
    <style>
      .cls-1 {
        fill: #295781;
      }

      .cls-2 {
        fill: #ed6262;
      }

      .cls-3 {
        fill: #f25c8c;
      }

      .cls-4 {
        opacity: .31;
      }

      .cls-4, .cls-5 {
        fill: #898989;
      }

      .cls-6 {
        fill: #21557f;
      }

      .cls-7 {
        fill: #e83131;
      }

      .cls-8 {
        fill: #225781;
      }

      .cls-9 {
        fill: #f9f3e2;
      }

      .cls-10 {
        fill: #a6bde2;
      }

      .cls-11 {
        fill: #4d91db;
      }

      .cls-12 {
        fill: #275a83;
      }

      .cls-5 {
        opacity: .62;
      }

      .cls-13 {
        fill: #dd4a4a;
      }
    </style>
  </defs>
  <g id="Capa_1-2" data-name="Capa 1">
    <g>
      <path class="cls-8" d="m38.42,338.33c-13.92-5.81-24.97-15.04-32.4-28.19-3.05-5.39-5.44-11.22-5.51-17.65C-.42,213.2.54,133.91,0,54.62-.19,25.66,26.59.07,54.43.09c76.96.05,153.93-.34,230.89.19,24.09.17,41.31,12.74,51.2,34.9.61,1.36,1.19,2.74,1.79,4.11,2.85,11.46,2.19,23.14,2.19,34.77.01,68.46-.02,136.92.04,205.39,0,6.35-.59,12.55-2.14,18.72-6.16,24.51-27.35,42.29-52.38,42.01-82.53-.9-165.1,2.71-247.6-1.87ZM8.43,204.98c26.99.07,53.98.18,80.97.21,30.45.04,56.69-10.47,78.41-31.85,22.84-22.46,50.43-33.16,82.2-33.39,25.99-.19,51.99-.12,77.98.05,4.04.03,5.42-.93,5.39-5.21-.2-25.49-.03-50.99-.12-76.48-.1-29.95-21.12-51.04-51.04-51.07-74.65-.07-149.31.41-223.95-.27-24.26-.22-51.97,20.26-51.23,51.31,1.11,46.8.29,93.64.3,140.46,0,1.83.16,3.65.24,5.48-.06.63.22.87.84.75Zm161.73,128.16c37.65,0,75.31-.36,112.95.13,25.04.33,50.09-19.58,50.15-49.94.09-43.81-.01-87.62.1-131.44,0-3.6-.82-4.9-4.69-4.88-27.15.17-54.31-.16-81.46.18-24.08.3-45.69,8.12-64.71,22.98-7.75,6.06-14.17,13.62-22.15,19.42-19.51,14.18-41.19,22.34-65.39,22.64-27.48.34-54.98.21-82.46.04-4.22-.03-5.28,1.2-5.24,5.31.2,22.15.05,44.31.15,66.47.02,3.45-.28,6.92.63,10.37,5.74,21.77,24.69,39.22,49.69,38.85,37.48-.54,74.96-.14,112.45-.14Z"/>
      <path class="cls-4" d="m346.4,45.27c10.3,6.25,15.69,16,18.82,27.14,1.57,5.57,2.25,11.34,2.25,17.21-.07,74.61-.11,149.22-.01,223.83.04,26.87-19.94,49.87-45.45,52.94-3.31.4-6.58.78-9.9.78-75.28,0-150.56.09-225.83-.06-16.56-.03-30.12-7.18-40.9-19.65-.5-.58-.63-1.49-.93-2.25,14.4,7.89,30.09,7.05,45.74,7.02,68.16-.11,136.32-.04,204.47-.05,4.31,0,8.58-.28,12.9-.83,24.16-3.08,44.76-25.53,44.81-51.59.14-75.99.05-151.98.05-227.96,0-1.99-.43-3.99-.5-5.93-.26-7.33-4.05-13.64-5.52-20.59Z"/>
      <path class="cls-5" d="m346.4,45.27c1.46,6.96,5.25,13.26,5.52,20.59.07,1.94.49,3.94.5,5.93,0,75.99.09,151.98-.05,227.96-.05,26.06-20.65,48.51-44.81,51.59-4.32.55-8.58.83-12.9.83-68.16.01-136.32-.05-204.47.05-15.65.02-31.34.87-45.74-7.02-2.34-2.01-5.09-3.66-6.03-6.88,82.5,4.58,165.07.97,247.6,1.87,25.04.27,46.23-17.5,52.38-42.01,1.55-6.17,2.15-12.37,2.14-18.72-.06-68.46-.03-136.92-.04-205.39,0-11.64.66-23.32-2.19-34.77,3.78.53,5.22,4.22,8.1,5.98Z"/>
      <path class="cls-13" d="m170.16,333.14c-37.48,0-74.97-.4-112.45.14-25,.36-43.95-17.08-49.69-38.85-.91-3.45-.62-6.93-.63-10.37-.1-22.16.05-44.31-.15-66.47-.04-4.12,1.03-5.34,5.24-5.31,27.49.17,54.98.31,82.46-.04,24.2-.3,45.88-8.46,65.39-22.64,7.98-5.8,14.4-13.36,22.15-19.42,19.02-14.87,40.64-22.68,64.71-22.98,27.15-.34,54.31-.01,81.46-.18,3.87-.02,4.7,1.28,4.69,4.88-.11,43.81,0,87.62-.1,131.44-.06,30.36-25.11,50.26-50.15,49.94-37.64-.49-75.3-.13-112.95-.13Zm-9.71-36.96c20.82,0,41.65,0,62.47,0,16.83,0,33.65.21,50.47-.08,11.04-.19,17.75-7.86,15.09-19.6-1.54-6.79-7.13-11.01-16.11-11.03-74.46-.09-148.93-.05-223.39-.05-1,0-2.01-.03-3,.07-8.03.82-14.35,7.4-14.51,15.09-.19,8.84,7.05,15.57,17.03,15.58,37.32.04,74.63.02,111.95.02Z"/>
      <path class="cls-7" d="m7.59,204.23c-.09-1.83-.24-3.65-.24-5.48-.01-46.82.81-93.66-.3-140.46C6.32,27.24,34.03,6.76,58.28,6.98c74.65.67,149.3.2,223.95.27,29.92.03,50.94,21.12,51.04,51.07.08,25.49-.08,50.99.12,76.48.03,4.28-1.35,5.24-5.39,5.21-25.99-.17-51.99-.23-77.98-.05-31.78.23-59.37,10.92-82.2,33.39-21.73,21.37-47.96,31.89-78.41,31.85-26.99-.04-53.98-.14-80.97-.21-.28-.25-.56-.5-.84-.75Zm152.82-107.72c-.23-38.17-28.38-63.98-63.99-64.56-37.32-.61-65.07,30.61-64.88,64.14.19,34.91,27.16,64.75,64.13,64.81,42.9.07,66.51-35.61,64.74-64.39Z"/>
      <path class="cls-3" d="m7.59,204.23c.28.25.56.5.84.75-.61.12-.9-.12-.84-.75Z"/>
      <path class="cls-6" d="m160.45,296.18c-37.32,0-74.63.03-111.95-.02-9.99-.01-17.22-6.74-17.03-15.58.17-7.68,6.48-14.27,14.51-15.09.99-.1,2-.07,3-.07,74.47,0,148.93-.04,223.39.05,8.98.01,14.57,4.24,16.11,11.03,2.67,11.74-4.04,19.41-15.09,19.6-16.82.29-33.65.08-50.47.08-20.82,0-41.65,0-62.47,0Zm-.09-7.16c27.31,0,54.62,0,81.93,0,10.33,0,20.65.09,30.97-.05,5.34-.08,9.03-3.6,9.02-8.08-.02-4.52-3.64-7.89-8.92-8.25-.99-.07-2-.02-3-.02-72.44,0-144.88,0-217.33.01-2.33,0-4.68.04-6.98.37-3.44.49-5.76,2.54-6.65,5.91-.9,3.4.31,6.31,2.92,8.49,2.33,1.95,5.31,1.61,8.11,1.61,36.64.01,73.28,0,109.91,0Z"/>
      <path class="cls-1" d="m160.42,96.51c1.78,28.77-21.83,64.46-64.74,64.39-36.98-.06-63.94-29.9-64.13-64.81-.19-33.53,27.56-64.74,64.88-64.14,35.61.58,63.76,26.39,63.99,64.56Zm-8.8-12.34c-.09-6.58-3.39-12.08-6.48-17.44-11.93-20.7-37.43-30.48-58.43-26.77-25.38,4.47-45.31,25.48-48.06,52.21-1.1,10.68,1.68,20.74,6.73,30.34,11.53,21.93,36.8,35.68,63.54,29.58,30.54-6.97,48.06-36.56,43.78-64.72.45-1.34.25-2.45-1.07-3.2Z"/>
      <path class="cls-2" d="m160.36,289.01c-36.64,0-73.28,0-109.91,0-2.81,0-5.78.34-8.11-1.61-2.61-2.18-3.82-5.09-2.92-8.49.89-3.37,3.21-5.43,6.65-5.91,2.3-.32,4.65-.37,6.98-.37,72.44-.02,144.88-.01,217.33-.01,1,0,2-.04,3,.02,5.28.36,8.91,3.72,8.92,8.25.02,4.47-3.68,8-9.02,8.08-10.32.15-20.65.05-30.97.05-27.31,0-54.62,0-81.93,0Z"/>
      <path class="cls-9" d="m152.69,87.37c4.28,28.16-13.24,57.75-43.78,64.72-26.73,6.1-52.01-7.65-63.54-29.58-5.05-9.6-7.83-19.66-6.73-30.34,2.76-26.73,22.68-47.73,48.06-52.21,21-3.7,46.5,6.07,58.43,26.77,3.08,5.35,6.39,10.86,6.48,17.44-.02,1.19-.17,2.43,1.07,3.2Zm-56.57-30.2c-23.74-2.58-41.3,21.57-40.43,39.3,1,20.37,16.94,39.63,40.33,39.85,19.16.18,39.77-16.2,39.85-40.11.07-21.28-18.84-41.73-39.75-39.04Z"/>
      <path class="cls-10" d="m152.69,87.37c-1.24-.77-1.1-2.01-1.07-3.2,1.32.74,1.53,1.86,1.07,3.2Z"/>
      <path class="cls-12" d="m96.12,57.16c20.91-2.7,39.81,17.76,39.75,39.04-.07,23.91-20.69,40.29-39.85,40.11-23.39-.22-39.33-19.48-40.33-39.85-.87-17.72,16.69-41.88,40.43-39.3Zm32.5,39.39c.07-18.13-14.64-33.23-32.3-33.15-17.73.08-32.83,15.27-32.76,32.94.07,17.25,15.11,32.82,31.74,32.87,18.3.06,33.24-14.6,33.32-32.66Z"/>
      <path class="cls-11" d="m128.62,96.55c-.07,18.06-15.02,32.72-33.32,32.66-16.63-.05-31.66-15.62-31.74-32.87-.08-17.67,15.03-32.86,32.76-32.94,17.65-.08,32.37,15.02,32.3,33.15Zm-32.1-10.08c.08-6.87-3.59-11.08-9.78-11.25-6.68-.18-11.37,4.37-11.37,11.03,0,6.47,4.46,10.97,10.9,10.99,6.36.02,10.16-3.99,10.24-10.77Z"/>
      <path class="cls-8" d="m96.52,86.47c-.08,6.79-3.89,10.79-10.24,10.77-6.44-.02-10.9-4.51-10.9-10.99,0-6.67,4.68-11.21,11.37-11.03,6.2.17,9.86,4.38,9.78,11.25Zm-10.16,3.55c2.19-.3,3.09-1.53,3.16-3.72.08-2.46-1.13-3.17-3.34-3.16-2.16,0-3.63.76-3.58,3.08.04,2.36,1.5,3.54,3.76,3.79Z"/>
      <path class="cls-9" d="m86.36,90.03c-2.27-.25-3.72-1.43-3.76-3.79-.04-2.33,1.43-3.08,3.58-3.08,2.21,0,3.41.7,3.34,3.16-.07,2.18-.96,3.41-3.16,3.72Z"/>
    </g>
  </g>
</svg>