<?xml version="1.0" encoding="UTF-8"?>
<svg id="Capa_2" data-name="Capa 2" xmlns="http://www.w3.org/2000/svg" viewBox="0 0 367.25 367.2">
  <defs>
    <style>
      .cls-1 {
        fill: #f25c8c;
      }

      .cls-2 {
        opacity: .31;
      }

      .cls-2, .cls-3 {
        fill: #898989;
      }

      .cls-4 {
        fill: #21557f;
      }

      .cls-5 {
        fill: #225781;
      }

      .cls-6 {
        fill: #4bbadd;
      }

      .cls-7 {
        fill: #f9f3e2;
      }

      .cls-8 {
        fill: #a6bde2;
      }

      .cls-9 {
        fill: #dde7f5;
      }

      .cls-10 {
        fill: #feb919;
      }

      .cls-11 {
        fill: #f45c8c;
      }

      .cls-12 {
        fill: #275a83;
      }

      .cls-13 {
        fill: #fcf5e3;
      }

      .cls-14 {
        fill: #5780a2;
      }

      .cls-3 {
        opacity: .62;
      }
    </style>
  </defs>
  <g id="Capa_1-2" data-name="Capa 1">
    <g>
      <path class="cls-2" d="m345.3,45.13c5.15.83,7.71,5.11,10.46,8.63,7.91,10.14,11.52,21.77,11.49,34.77-.14,75.27-.06,150.54-.07,225.81,0,26.66-18.7,48.09-45,52-3.98.59-7.91.83-11.89.83-74.27,0-148.55.08-222.82-.06-14.84-.03-27.99-5.04-38.62-15.79-1.42-1.44-2.92-2.79-2.68-5.08,13.25,6.09,27.31,6.05,41.51,6.02,69.97-.17,139.94-.08,209.91-.07,3.66,0,7.25-.26,10.89-.91,25.26-4.55,43.69-26.36,43.7-52.02.01-73.8-.08-147.6.1-221.4.03-11.54-1.39-22.51-6.97-32.73Z"/>
      <path class="cls-5" d="m40.26,339.1c-17.34-7.35-31.05-18.37-37.27-36.95-2.03-6.06-2.92-12.27-2.92-18.65.06-77.27-.42-154.54.42-231.8C.79,25.09,22.1,5.94,44.3,1.25,48.9.27,53.54.04,58.2.04,132.98.04,207.75.09,282.52,0c18.7-.02,33.99,6.85,45.87,21.27,3.92,4.76,6.29,10.42,8.9,15.93,2.23,6.64,3.19,13.42,3.18,20.45-.07,75.15-.04,150.3-.05,225.44,0,4-.12,7.98-.84,11.94-4.54,25.2-28.59,45.56-55.93,45.43-75.48-.37-150.97-.12-226.45-.15-3.66,0-7.32-.32-10.98-.49-.32-1.18-.77-1.98-1.97-.71h-3.99Zm129.43-6.04v.06c37.48,0,74.97,0,112.45,0,3,0,6.1.52,8.97-.08,24.72-5.16,41.61-22.17,41.85-48.1.72-76.46.39-152.93.11-229.4-.04-11.38-3.81-22.09-11.52-30.95-9.58-11.02-21.66-16.86-36.3-17.32-1.17-.04-2.33-.05-3.5-.05-74.3,0-148.61.04-222.91-.05-12.09-.01-23.13,2.86-32.61,10.47C15.83,26.02,8.42,36.71,7.56,50.19c-.96,15.1-.28,30.3-.28,45.46,0,62.14.04,124.28-.03,186.42-.01,12.66,3.4,24.04,11.73,33.66,8.27,9.55,18.59,16.9,31.29,17.11,39.8.65,79.62.24,119.44.24Z"/>
      <path class="cls-3" d="m46.22,339.82c3.66.17,7.32.49,10.98.49,75.48.03,150.97-.22,226.45.15,27.34.13,51.39-20.23,55.93-45.43.71-3.96.83-7.95.84-11.94.01-75.15-.02-150.3.05-225.44,0-7.03-.95-13.82-3.18-20.45,3.73,1.57,6.25,4.37,8,7.94,5.58,10.22,7,21.19,6.97,32.73-.18,73.8-.09,147.6-.1,221.4,0,25.65-18.44,47.47-43.7,52.02-3.64.66-7.23.91-10.89.91-69.97,0-139.94-.09-209.91.07-14.2.03-28.26.07-41.51-6.02-2.07-2.29-5.55-3.43-5.9-7.14,1.33,0,2.66,0,3.99,0,.36,1.05,1.11,1.04,1.97.71Z"/>
      <path class="cls-13" d="m169.7,333.07c-39.81,0-79.63.41-119.44-.24-12.69-.21-23.01-7.56-31.29-17.11-8.33-9.61-11.75-21-11.73-33.66.07-62.14.03-124.28.03-186.42,0-15.16-.68-30.36.28-45.46.86-13.48,8.27-24.17,18.71-32.54,9.48-7.61,20.52-10.49,32.61-10.47,74.3.09,148.61.04,222.91.05,1.17,0,2.33.01,3.5.05,14.63.46,26.72,6.3,36.3,17.32,7.7,8.86,11.47,19.58,11.52,30.95.28,76.47.61,152.94-.11,229.4-.25,25.93-17.13,42.94-41.85,48.1-2.87.6-5.97.08-8.97.08-37.48,0-74.97,0-112.45,0v-.06Zm-48.61-60.76s.03.03.03.03c.9,1.51,2.51.4,3.66.99,3.58,1.27,7.08,3.32,10.75,3.69,14.91,1.49,29.39.18,42.71-7.77,15.53-9.26,26.6-22.21,29.71-40.03,3.18-18.19,4.38-36.73,6.45-55.11,1.93.09,3.86.17,5.79.26,1.46,2.18,3.54,2.94,6.08,2.66.6.43,1.2.63,1.85.1,1.67.96,3.46.99,5.29.63,1.85,1.21,3.69,1.23,5.53-.02,5.01.22,9.83-.72,14.61-2.14,9.68-2.87,19.19-6.47,29.47-6.7,2.53.15,3.62,2.2,4.91,3.86,3.99,5.19,8.67,8.09,15.35,5.1.72.38,1.59.61,2.13,1.16,3.83,3.95,8.16,4.87,11.92,2.44,3.31-2.14,3.81-6.41,1.33-11.73-3.31-7.11-7.08-13.99-12.14-19.99-3.36-3.97-6.31-8.56-11.59-10.47-7.34-8.95-16.29-15.73-27.03-20.1-.27-.28-.54-.56-.82-.83h0c-.87-2.27-3.11-2.84-4.93-3.83-9.65-5.26-20.19-8.11-30.65-11.17-.18-.18-.35-.36-.51-.55-2.99-6.12-5.8-12.34-9.06-18.31-1.56-2.86-4.63-3.43-7.8-2.77-2.75-7.27-6.74-12.85-15.76-11.59-.2-4.99-3.41-7.24-7.78-7.31-4.25-.07-6.97,2.58-8.02,6.84-1.42,5.79-1.68,11.72-2.37,17.6-1.27,10.95-2.59,21.89-3.75,32.86-1.16,10.96-2.14,21.95-3.2,32.92-5.58-3.41-11.05-7.04-17.15-9.53-.32-2.03-2.23-2.28-3.58-3.08-8.74-5.16-18.4-7.16-28.38-7.97-1.63-1.46-3.25-1.45-4.89,0-21.46,1.41-38.81,10.58-50.42,28.72-3.75,5.86-8.04,8.49-14.34,10.35-17.93,5.31-28.57,17.89-33.3,35.75-.65.65-.84,1.37-.34,2.2-.17,1.6-.34,3.21-.51,4.81-1.41,2.29-1.39,4.59-.03,6.9.5,8.94,2.45,17.34,8.9,24.08l-.03-.06c-.16.94.25,1.54,1.11,1.88,1.9,3.5,3.57,7.15,5.75,10.46,3.84,5.85,6.57,8.5,13.7.91,1.41,2.03,2.81,4.05,4.22,6.08,1.11,1.59,2.5,2.79,4.56,2.21,2.01-.57,2.73-2.18,2.78-4.21.09-3.67.93-7.19,2.08-10.66.83-2.51,2.42-3.54,4.91-2.65,4.18,1.49,8.45,1.11,12.73.83,2.3.84,3.42,3.03,5.14,4.53,9.92,8.64,20.63,15.73,34.05,17.59l.42.19h.46Z"/>
      <path class="cls-12" d="m46.22,339.82c-.86.33-1.61.34-1.97-.71,1.2-1.27,1.65-.47,1.97.71Z"/>
      <path class="cls-4" d="m156.11,143.5c6.1,2.48,11.56,6.11,17.15,9.53,1.69,1.58,3.39,3.15,5.07,4.75,1.94,1.86,2.61,1.13,3.07-1.2.62-3.13.64-6.27.82-9.42.32-5.44.62-10.9,1.32-16.31,1.78-13.75,3.49-27.49,4.8-41.3.71-7.52.64-16.1,10.04-19.43,9.02-1.26,13.02,4.32,15.76,11.59,3.87,8.42,8.23,16.46,16.86,21.08.16.19.33.38.51.55.75,2.37,3.04,2.88,4.86,3.85,9.71,5.15,20.52,7.31,30.72,11.15,0,0,0,0,0,0,.27.28.54.56.82.83,10.74,4.37,19.69,11.15,27.03,20.1,4.18,6.13,8.26,12.3,11.46,19.03,4.53,9.52,4.15,12.35-3.11,19.55-6.68,2.99-11.36.08-15.35-5.1-1.28-1.67-2.38-3.72-4.91-3.86-.13-2.64-2.33-3.05-4.15-3.54-7.55-2.04-15.05-1.52-22.55.55-11.94,3.29-23.54,8.02-36.15,8.46-1.93-.09-3.86-.17-5.79-.26-2.45-2.65-6.16-2.04-9.09-3.5-1.46-.73-1.99.41-2.17,1.76-.62,4.59-1.44,9.15-1.92,13.76-1.14,10.8-1.7,21.67-3.25,32.4-4.72,32.81-39.24,58.55-72.02,54.04-1.58-.67-3.2-.53-4.83-.22,0,0-.03-.03-.03-.03-.16-.72-.49-.61-.89-.18-13.42-1.86-24.13-8.94-34.05-17.59-1.72-1.5-2.84-3.69-5.14-4.53-3.39-6.81-3.34-6.55-10.15-5.17-4.9.99-9.87,2.43-15.01.42-2.2-.86-4.24.01-4.62,2.89-.46,3.43-.99,6.85-1.49,10.27-7.13,7.59-9.85,4.94-13.7-.91-2.18-3.31-3.85-6.96-5.75-10.46.03-.86-.21-1.57-1.11-1.88,0,0,.03.06.03.06.31-1.87-.25-3.62-.68-5.4-6.37-26.53,10.69-55.51,37.41-61.65,4.46-1.03,7.3-3.33,9.88-7.27,15.16-23.07,36.67-33.52,64.23-30.76,5.4.54,10.69,2.19,16.03,3.34Zm-19.78,51.7c-.06,1.15-.09,2.3-.17,3.45-.1,1.44.23,2.58,1.79,3.08,1.47.47,2.16-.45,2.65-1.53.73-1.6.85-3.25-.56-4.55-1.11-1.03-2.56.07-3.81-.35-.94-4.17,3.31-2.44,4.75-3.84-3.53-5.92-8.67-6.99-12.99-2.86-7.8,7.46-10.27,23.32-4.82,32.42,4.35,7.27,9.26,7.59,15.06,1.05,3.13-3.52,4.24-7.99,4.68-12.76-6.27,3.38-7.44,3.23-9.69-1.14-2.41-4.68-.9-10.98,3.11-12.97Zm-101.29,41.25c-.8.55-.67,1.06.08,1.53.76,6.03,3.83,10.89,7.68,16.02.25-1.14.39-1.6.44-2.06,1.77-17.97,15.39-29.99,31.36-30.71,4.51-.2,8.92.47,13.26,1.37,2.28.47,3.38.02,4.34-1.91,5.7-11.43,5.7-22.71-.92-33.77-.88-1.48-1.9-2.47-4.06-2.85-12.4-2.17-23.68.27-33.74,7.7-15.09,11.14-20.51,26.41-18.44,44.7Zm49.83-6.7c-10.36-2.91-18.7-1.14-25.97,5.45-.55.5-1.69.9-1.2,1.82.32.61,1.26,1.17,1.97,1.24,9.33.87,17.36-2.08,25.2-8.51Z"/>
      <path class="cls-6" d="m156.11,143.5c-5.34-1.14-10.63-2.8-16.03-3.34-27.57-2.76-49.08,7.69-64.23,30.76-2.58,3.93-5.42,6.24-9.88,7.27-26.72,6.14-43.78,35.12-37.41,61.65.43,1.78.99,3.53.68,5.4-6.45-6.74-8.41-15.14-8.9-24.08,1.19-2.29,1.16-4.59.03-6.9.17-1.6.34-3.21.51-4.81.92-.6,1.43-1.27.35-2.2,4.72-17.86,15.37-30.44,33.3-35.75,6.3-1.87,10.59-4.49,14.34-10.35,11.62-18.14,28.96-27.31,50.42-28.72,1.63,1.04,3.26,1.03,4.89,0,9.98.82,19.63,2.81,28.38,7.97,1.35.79,3.26,1.05,3.58,3.08Z"/>
      <path class="cls-1" d="m125.95,272.56c32.79,4.51,67.31-21.23,72.02-54.04,1.54-10.73,2.11-21.61,3.25-32.4.48-4.6,1.3-9.17,1.92-13.76.18-1.35.71-2.49,2.17-1.76,2.93,1.46,6.64.85,9.09,3.5-2.07,18.38-3.27,36.92-6.45,55.11-3.12,17.83-14.19,30.77-29.71,40.03-13.33,7.95-27.8,9.27-42.71,7.77-3.67-.37-7.17-2.41-10.74-3.68.39-.26.78-.51,1.16-.77Z"/>
      <path class="cls-6" d="m198.37,70.11c-9.39,3.32-9.32,11.91-10.04,19.43-1.31,13.81-3.01,27.56-4.8,41.3-.7,5.4-1,10.86-1.32,16.31-.19,3.15-.2,6.29-.82,9.42-.46,2.33-1.14,3.06-3.07,1.2-1.67-1.6-3.38-3.17-5.07-4.75,1.06-10.98,2.04-21.96,3.2-32.92,1.16-10.96,2.47-21.91,3.75-32.86.68-5.88.94-11.82,2.37-17.6,1.05-4.26,3.77-6.91,8.02-6.84,4.37.07,7.59,2.33,7.78,7.31Z"/>
      <path class="cls-1" d="m220.19,174.36c12.6-.45,24.21-5.18,36.15-8.46,7.5-2.07,15-2.58,22.55-.55,1.82.49,4.02.9,4.15,3.54-10.28.23-19.8,3.83-29.47,6.7-4.78,1.42-9.6,2.36-14.61,2.14-1.85-.79-3.69-.8-5.53.02-1.83.36-3.62.32-5.29-.63-.57-.84-1.19-.92-1.85-.11-2.54.29-4.62-.47-6.08-2.66Z"/>
      <path class="cls-1" d="m303.29,177.86c7.26-7.2,7.64-10.03,3.11-19.55-3.2-6.73-7.28-12.9-11.46-19.03,5.28,1.91,8.24,6.49,11.59,10.47,5.07,6,8.83,12.88,12.14,19.99,2.48,5.32,1.98,9.59-1.33,11.73-3.76,2.43-8.09,1.51-11.92-2.44-.54-.55-1.41-.78-2.13-1.16Z"/>
      <path class="cls-1" d="m49.75,258.43c.5-3.42,1.03-6.84,1.49-10.27.38-2.88,2.42-3.76,4.62-2.89,5.14,2.01,10.11.57,15.01-.42,6.82-1.38,6.77-1.64,10.15,5.17-4.28.29-8.55.66-12.73-.83-2.49-.89-4.07.15-4.91,2.65-1.16,3.47-1.99,7-2.08,10.66-.05,2.02-.77,3.63-2.78,4.21-2.06.59-3.45-.61-4.56-2.21-1.41-2.03-2.81-4.05-4.22-6.08Z"/>
      <path class="cls-1" d="m230.99,102.78c-8.63-4.62-12.99-12.66-16.86-21.08,3.17-.66,6.23-.09,7.8,2.77,3.27,5.97,6.07,12.19,9.06,18.31Z"/>
      <path class="cls-6" d="m267.09,118.33c-10.2-3.84-21.01-5.99-30.72-11.15-1.82-.97-4.11-1.48-4.86-3.85,10.46,3.06,21.01,5.91,30.66,11.17,1.82.99,4.06,1.56,4.93,3.83Z"/>
      <path class="cls-8" d="m20.35,214.26c1.13,2.3,1.16,4.6-.03,6.9-1.36-2.31-1.39-4.6.03-6.9Z"/>
      <path class="cls-11" d="m233.42,177.76c1.84-.83,3.69-.81,5.53-.02-1.84,1.26-3.68,1.23-5.53.02Z"/>
      <path class="cls-8" d="m124.15,132.44c-1.63,1.02-3.26,1.03-4.89,0,1.63-1.44,3.26-1.45,4.89,0Z"/>
      <path class="cls-14" d="m125.95,272.56c-.39.26-.77.52-1.16.77-1.15-.59-2.76.51-3.66-1,1.63-.31,3.24-.45,4.83.22Z"/>
      <path class="cls-11" d="m226.27,177.02c.67-.82,1.28-.74,1.85.11-.65.52-1.26.32-1.85-.11Z"/>
      <path class="cls-8" d="m21.21,207.25c1.08.92.57,1.59-.35,2.2-.49-.83-.3-1.55.35-2.2Z"/>
      <path class="cls-6" d="m29.19,245.18c.9.32,1.14,1.02,1.11,1.88-.86-.34-1.27-.94-1.11-1.88Z"/>
      <path class="cls-14" d="m120.2,272.13c.39-.43.72-.54.89.18,0,0-.46,0-.46,0l-.42-.19Z"/>
      <path class="cls-6" d="m267.9,119.17c-.27-.28-.54-.56-.82-.83.27.28.54.56.82.83Z"/>
      <path class="cls-10" d="m35.03,236.44c-2.07-18.29,3.35-33.56,18.44-44.7,10.05-7.42,21.33-9.87,33.74-7.7,2.17.38,3.18,1.37,4.06,2.85,6.63,11.07,6.62,22.34.92,33.77-.96,1.93-2.07,2.38-4.34,1.91-4.34-.9-8.75-1.57-13.26-1.37-15.96.72-29.58,12.75-31.36,30.71-.05.47-.19.92-.44,2.06-3.86-5.13-6.92-9.99-7.68-16.02.46-.53.49-1.05-.08-1.53Z"/>
      <path class="cls-7" d="m136.33,195.2c-4.01,1.99-5.53,8.29-3.12,12.97,2.25,4.37,3.42,4.52,9.69,1.14-.44,4.77-1.56,9.23-4.68,12.76-5.81,6.54-10.71,6.22-15.06-1.05-5.45-9.1-2.98-24.96,4.82-32.42,4.32-4.13,9.46-3.06,12.99,2.86-1.44,1.4-5.69-.33-4.75,3.84l.1-.1Z"/>
      <path class="cls-10" d="m84.85,229.74c-7.85,6.43-15.88,9.38-25.2,8.51-.71-.07-1.65-.63-1.97-1.24-.49-.93.66-1.33,1.2-1.82,7.28-6.59,15.61-8.35,25.97-5.45Z"/>
      <path class="cls-9" d="m136.22,195.3c1.25.42,2.69-.68,3.81.35,1.41,1.3,1.29,2.95.56,4.55-.49,1.08-1.18,2-2.65,1.53-1.55-.49-1.89-1.63-1.79-3.08.08-1.15.12-2.3.17-3.45,0,0-.1.1-.1.1Z"/>
      <path class="cls-14" d="m35.03,236.44c.57.48.54,1,.08,1.53-.75-.47-.88-.98-.08-1.53Z"/>
    </g>
  </g>
</svg>