<?xml version="1.0" encoding="UTF-8"?>
<svg id="Capa_2" data-name="Capa 2" xmlns="http://www.w3.org/2000/svg" viewBox="0 0 367.14 366.93">
  <defs>
    <style>
      .cls-1 {
        opacity: .31;
      }

      .cls-1, .cls-2 {
        fill: #898989;
      }

      .cls-3 {
        fill: #225781;
      }

      .cls-4 {
        fill: #4bbadd;
      }

      .cls-5 {
        fill: #f9f3e2;
      }

      .cls-6 {
        fill: #a6bde2;
      }

      .cls-7 {
        fill: #275a83;
      }

      .cls-8 {
        fill: #86a4bf;
      }

      .cls-9 {
        fill: #5780a2;
      }

      .cls-2 {
        opacity: .62;
      }
    </style>
  </defs>
  <g id="Capa_1-2" data-name="Capa 1">
    <g>
      <path class="cls-1" d="m346.05,45.01c11.47,7.46,16.9,18.77,20.04,31.52,1.33,5.39,1.02,10.9,1.02,16.38,0,73.99.01,147.98,0,221.96,0,25.61-19.13,47.91-44.46,51.87-1.47.23-2.99.15-4.49.15-78.32,0-156.65.09-234.97-.06-15.48-.03-27.59-7.57-37.45-19.06-.39-.46-.42-1.23-.62-1.86,12.85,6.32,26.59,6.09,40.46,6.06,71.81-.16,143.62-.07,215.43-.08,27.26,0,51.07-23.74,51.08-50.99.03-76.97.01-153.95,0-230.92,0-2.15-.31-4.29-.53-6.43-.68-6.57-4.21-12.21-5.52-18.54Z"/>
      <path class="cls-3" d="m38.11,337.96c-17.94-7.12-30.33-19.48-36.05-38.16-1.52-4.97-2.02-10.06-2.02-15.2C.02,208.47-.06,132.34.08,56.2.12,32.32,14.07,12.4,36.31,3.77,42.34,1.44,48.71.14,55.24.14c76.64-.01,153.28-.44,229.91.27,22.26.21,41.18,10.56,51.99,36.53,2.3,6.63,3.26,13.43,3.25,20.48-.06,75.31-.03,150.62-.07,225.93,0,3.82-.09,7.71-.83,11.43-5.4,27.39-28.06,45.89-56.25,45.91-72.15.05-144.3-.02-216.44.06-9.68.01-19.28-.18-28.69-2.78Zm295.02-168.04c0-37.33,0-74.65,0-111.98,0-4.48-.82-8.78-1.71-13.22-4.46-22.08-26.75-37.73-49.66-37.65-74.32.26-148.65.1-222.97.1-29.84,0-51.58,21.53-51.59,51.23-.04,74.65-.02,149.31,0,223.96,0,2.82,0,5.7.49,8.46,4.71,26.45,24.09,42.71,51.6,42.76,73.82.14,147.65.08,221.47,0,11-.01,21.52-2.26,30.77-8.68,14.47-10.04,21.38-24.26,21.51-41.51.28-37.83.09-75.65.09-113.48Z"/>
      <path class="cls-2" d="m38.11,337.96c9.4,2.6,19.01,2.79,28.69,2.78,72.15-.08,144.3,0,216.44-.06,28.19-.02,50.85-18.52,56.25-45.91.73-3.72.82-7.62.83-11.43.05-75.31,0-150.62.07-225.93,0-7.04-.95-13.84-3.25-20.48,2.97,2.69,5.94,5.38,8.91,8.08,1.31,6.33,4.84,11.98,5.52,18.54.22,2.14.53,4.27.53,6.43,0,76.97.03,153.95,0,230.92-.01,27.26-23.82,50.99-51.08,50.99-71.81.02-143.62-.08-215.43.08-13.86.03-27.61.26-40.46-6.06-2.64-2.38-5.85-4.26-7-7.96Z"/>
      <path class="cls-4" d="m333.13,169.92c0,37.83.19,75.66-.09,113.48-.13,17.25-7.03,31.47-21.51,41.51-9.25,6.42-19.77,8.66-30.77,8.68-73.82.07-147.65.13-221.47,0-27.51-.05-46.89-16.31-51.6-42.76-.49-2.76-.49-5.64-.49-8.46-.02-74.65-.04-149.31,0-223.96.01-29.7,21.75-51.22,51.59-51.23,74.32,0,148.65.16,222.97-.1,22.91-.08,45.2,15.56,49.66,37.65.89,4.43,1.71,8.74,1.71,13.22.01,37.33,0,74.65,0,111.98Zm-168.08,89.18c21.9-.03,40.79-7.8,56.16-23.18,19.07-19.08,25.88-42.45,22.08-69.04-.28-1.94-.79-3.91.38-5.82,3.64-5.97,8.23-10.14,15.84-10.22,5.38-.06,8.24-4.65,6.65-9.81-1.26-4.09-3.57-7.67-6.96-10.15-3.05-2.23-2.99-4.29-1.91-7.56,5.32-15.98-3.47-32.4-19.24-36.51-4.34-1.13-8.42.06-9.33,4.2-1.1,5.01-3.42,3.96-6.72,3.25-22-4.73-42.33-.71-60.62,12.41-3,2.15-4.71,1.85-7.23-.17-9.49-7.58-19.06-15.07-28.67-22.49-4.85-3.74-9.17-2.95-12.87,1.9-4.79,6.27-8.18,13.29-10.73,20.67-5.92,17.15-5.28,34.34.84,51.26,5.62,15.54,15.96,27.45,29.59,36.64.95.64,3.61.72,1.76,2.97-3.6,4.38-16.36,6.84-21.53,4.26-13.71-6.84-27.42-13.67-41.11-20.54-3.68-1.84-7.12-1.79-10.06,1.28-2.71,2.82-2.58,6.16-.47,9.14,1.46,2.07.99,3.77.7,5.98-.48,3.7-2.17,7.71-.46,11.21,2.69,5.5,4.7,11.06,5.31,17.18.2,2.03,1.54,4,3.53,4.55,13.19,3.69,25.51,10.79,39.76,10.4,2.77-.08,5.09.54,7.39,2.27,14.16,10.65,30.11,16.07,47.91,15.92Z"/>
      <path class="cls-7" d="m165.06,259.1c-17.8.15-33.75-5.27-47.91-15.92-2.3-1.73-4.62-2.35-7.39-2.27-14.25.39-26.56-6.71-39.76-10.4-1.99-.56-3.33-2.53-3.53-4.55-.61-6.12-2.62-11.67-5.31-17.18-1.71-3.5-.02-7.51.46-11.21.29-2.22.76-3.92-.7-5.98-2.11-2.99-2.23-6.32.47-9.14,2.93-3.06,6.38-3.12,10.06-1.28,13.7,6.87,27.41,13.7,41.11,20.54,5.17,2.58,17.93.12,21.53-4.26,1.84-2.24-.82-2.33-1.76-2.97-13.62-9.19-23.96-21.1-29.59-36.64-6.12-16.92-6.76-34.12-.84-51.26,2.55-7.38,5.94-14.4,10.73-20.67,3.7-4.85,8.02-5.64,12.87-1.9,9.61,7.42,19.18,14.91,28.67,22.49,2.53,2.02,4.23,2.32,7.23.17,18.29-13.11,38.62-17.14,60.62-12.41,3.3.71,5.62,1.76,6.72-3.25.91-4.14,4.99-5.33,9.33-4.2,15.77,4.11,24.56,20.53,19.24,36.51-1.09,3.26-1.14,5.33,1.91,7.56,3.38,2.47,5.7,6.06,6.96,10.15,1.59,5.15-1.27,9.74-6.65,9.81-7.61.09-12.2,4.26-15.84,10.22-1.17,1.92-.66,3.88-.38,5.82,3.79,26.59-3.02,49.96-22.08,69.04-15.37,15.38-34.26,23.15-56.16,23.18Zm-77.91-42.34c-4.69-.45-9.38-1.25-14.86-.43,2.35,2.06,6.1,3.31,2.15,6.54-.71.58.84,1.65,1.72,1.88,12,3.06,23.19,9.67,36.2,8.28,2.81-.3,5.02.65,7.28,2.43,9.61,7.58,20.26,12.85,32.49,15.1,32.52,5.99,66.46-12.24,77.98-41.32,2.42-6.1,4.51-12.18,5.55-18.81,1.13-7.15,1.69-13.91-.11-21.01-1.24-4.87-3.14-10.37,2.89-14,.66-.4,1.19-1.23,1.49-1.98,2.7-6.62,8.74-8.28,14.75-9.44,4.02-.77,3.88-2.2,1.97-4.86-3.26-4.54-8.04-6.57-14.37-7.78,9.2-8.2,11.77-17.34,6.25-27.7-2.02-3.79-4.77-7.39-10.36-7.78,7.8,8.97,10.33,19.37,6.78,26.62-2.48-9.86-3.25-11.43-6.87-13.99-2.75-1.94-6.12-2.41-9.09-3.75-12.08-5.47-24.5-5.3-37.2-3.09-11.75,2.04-21.91,7.2-30.83,14.96-2.4,2.09-4.16,1.76-6.64-.27-9.41-7.7-19.06-15.11-28.63-22.62-6.32-4.95-6.12-4.8-10.71,2.12-2.45,3.69-2.07,6.21,1.29,8.8,3.97,3.07,7.81,6.31,12.14,9.83-4.21.46-6.96-2.08-10.18-2.82-3.25-.74-5.38-6.22-8.55-3.55-2.22,1.87-2.1,6.45-3.15,9.77-1.02,3.24.12,5.1,2.98,6.92,3.79,2.41,8.1,3.76,12.68,6.07-3.72,1.54-6.44.28-9.19,0-8.16-.85-8.91.04-7.83,8.47.57,4.45,2.36,7.41,7.03,8.54,4.3,1.05,8.47,2.66,12.7,4.02-.24.3-.48.59-.73.89-3.45.68-6.95.83-10.42.37-3.71-.49-5.09.49-3.15,4.14,1.95,3.66,3.96,7.3,5.87,10.99,1.05,2.03,2.6,2.68,4.85,2.57,3.48-.18,6.97-.05,10.46-.05.07.28.15.56.22.84-3.2,1.46-6.4,2.92-9.04,4.12,1.55,1.85,2.78,3.66,4.35,5.13,4.69,4.39,9.27,9.4,16.66,4.97.41-.24,1.15.07,1.91.14-3.96,5.14-4.01,5.27,1.56,7.67,3.23,1.39,3.61,2.53.55,4.56-9.13,6.05-19.19,10.17-29.2,14.42-.98.42-1.8.08-2.76-.41-13-6.69-26.03-13.32-39.07-19.91-1.65-.84-3.28-2.29-5.48-1.08,3.01,3.91,7.7,6.3,10.12,11.85-4.11-.81-7.5-1.48-12-2.37,3.8,2.94,1.55,4.28-1.43,6.28,7.7,1.78,13.59,5.38,19.98,7.87-.33.61-.66,1.22-.99,1.83Z"/>
      <path class="cls-5" d="m124.89,151.94c-4.23-1.36-8.4-2.97-12.7-4.02-4.67-1.14-6.46-4.09-7.03-8.54-1.08-8.44-.33-9.32,7.83-8.47,2.74.29,5.47,1.55,9.19,0-4.58-2.31-8.89-3.66-12.68-6.07-2.86-1.82-4-3.68-2.98-6.92,1.05-3.33.93-7.91,3.15-9.77,3.17-2.67,5.31,2.81,8.55,3.55,3.21.74,5.96,3.28,10.18,2.82-4.33-3.52-8.17-6.76-12.14-9.83-3.36-2.59-3.73-5.11-1.29-8.8,4.59-6.92,4.39-7.07,10.71-2.12,9.57,7.5,19.22,14.91,28.63,22.62,2.48,2.03,4.24,2.36,6.64.27,8.92-7.76,19.08-12.91,30.83-14.96,12.7-2.21,25.12-2.39,37.2,3.09,2.97,1.34,6.34,1.81,9.09,3.75,3.62,2.56,4.39,4.13,6.87,13.99,3.55-7.26,1.02-17.65-6.78-26.62,5.58.39,8.33,3.99,10.36,7.78,5.52,10.36,2.95,19.5-6.25,27.7,6.33,1.22,11.11,3.25,14.37,7.78,1.91,2.66,2.05,4.09-1.97,4.86-6,1.16-12.05,2.82-14.75,9.44-.3.75-.83,1.58-1.49,1.98-6.03,3.63-4.13,9.13-2.89,14,1.81,7.1,1.24,13.86.11,21.01-1.04,6.63-3.14,12.71-5.55,18.81-11.52,29.08-45.46,47.31-77.98,41.32-12.23-2.25-22.87-7.52-32.49-15.1-2.26-1.78-4.47-2.73-7.28-2.43-13.01,1.39-24.2-5.22-36.2-8.28-.88-.23-2.43-1.3-1.72-1.88,3.95-3.24.2-4.48-2.15-6.54,5.48-.82,10.17-.02,14.86.43,2.04,1.43,4.18,1.18,7.16.58-2.15-1.99-3.91-2.79-6.16-2.41-6.39-2.49-12.28-6.09-19.98-7.87,2.98-2.01,5.23-3.34,1.43-6.28,4.5.89,7.89,1.56,12,2.37-2.42-5.55-7.11-7.94-10.12-11.85,2.2-1.21,3.83.24,5.48,1.08,13.05,6.59,26.08,13.22,39.07,19.91.96.5,1.78.83,2.76.41,10.01-4.25,20.08-8.37,29.2-14.42,3.06-2.03,2.68-3.17-.55-4.56-5.57-2.4-5.52-2.53-1.56-7.67-.75-.07-1.5-.39-1.91-.14-7.39,4.43-11.97-.59-16.66-4.97-1.57-1.46-2.8-3.28-4.35-5.13,2.64-1.2,5.84-2.66,9.04-4.12-.07-.28-.15-.56-.22-.84-3.49,0-6.98-.13-10.46.05-2.26.12-3.8-.54-4.85-2.57-1.91-3.69-3.92-7.32-5.87-10.99-1.94-3.65-.56-4.63,3.15-4.14,3.47.46,6.97.32,10.42-.37.39.2,1.01.68,1.14.57.81-.68.2-1.1-.41-1.46Zm79.93-28.96c-12.58-.34-23.23,1.54-34.73,6.09,6.43,3.19,8.82,7.55,8.48,13.61-.11,1.99.63,4.32,1.71,6.02,1.83,2.88,2.88,7.78,5.92,8.01,3.01.23,3.74-4.74,5.28-7.51,1.53-2.75,2.65-5.73,3.89-8.63,2.47-5.75,3.46-12.21,9.44-17.6Zm-84.24,8.15c2.94,1.11,4.9.96,8.18.16-3.28-.5-5.14-2.01-8.18-.16Z"/>
      <path class="cls-8" d="m88.14,214.94c2.26-.39,4.02.42,6.16,2.41-2.98.61-5.12.85-7.16-.58.33-.61.66-1.22.99-1.83Z"/>
      <path class="cls-6" d="m124.89,151.94c.61.36,1.23.78.41,1.46-.13.11-.75-.36-1.14-.57.24-.3.48-.59.73-.89Z"/>
      <path class="cls-7" d="m204.81,122.99c-5.98,5.39-6.97,11.85-9.44,17.6-1.25,2.9-2.36,5.88-3.89,8.63-1.54,2.77-2.28,7.74-5.28,7.51-3.04-.23-4.09-5.13-5.92-8.01-1.09-1.7-1.83-4.03-1.71-6.02.34-6.06-2.05-10.42-8.48-13.61,11.49-4.55,22.14-6.43,34.73-6.09Zm-17.61,18.08c1.08-2.62,2.05-4.5,2.61-6.5.31-1.09,2.12-3.04-.7-3.38-1.85-.23-3.75.24-3.67,2.85.07,2.12-.26,4.32,1.75,7.03Z"/>
      <path class="cls-9" d="m120.57,131.13c3.04-1.84,4.9-.34,8.18.16-3.28.8-5.24.95-8.18-.16Z"/>
      <path class="cls-4" d="m187.2,141.06c-2.02-2.71-1.68-4.91-1.75-7.03-.09-2.61,1.81-3.08,3.67-2.85,2.82.34,1.01,2.29.7,3.38-.56,2-1.53,3.89-2.61,6.5Z"/>
    </g>
  </g>
</svg>